M48
; DRILL file {KiCad 9.0.7} date 2026-07-03T18:40:30+0500
; FORMAT={-:-/ absolute / metric / decimal}
; #@! TF.CreationDate,2026-07-03T18:40:30+05:00
; #@! TF.GenerationSoftware,Kicad,Pcbnew,9.0.7
; #@! TF.FileFunction,MixedPlating,1,2
FMAT,2
METRIC
; #@! TA.AperFunction,Plated,PTH,ComponentDrill
T1C0.750
; #@! TA.AperFunction,Plated,PTH,ComponentDrill
T2C0.800
; #@! TA.AperFunction,Plated,PTH,ViaDrill
T3C0.900
; #@! TA.AperFunction,Plated,PTH,ComponentDrill
T4C0.900
; #@! TA.AperFunction,Plated,PTH,ComponentDrill
T5C1.000
; #@! TA.AperFunction,Plated,PTH,ComponentDrill
T6C1.100
; #@! TA.AperFunction,Plated,PTH,ComponentDrill
T7C1.300
%
G90
G05
T1
X38.733Y-14.422
X38.733Y-15.692
X38.733Y-16.962
X62.713Y-45.692
X63.983Y-45.692
X65.253Y-45.692
T2
X14.193Y-10.432
X14.193Y-25.432
X14.193Y-40.432
X24.353Y-10.432
X24.353Y-25.432
X24.353Y-40.432
X28.573Y-22.092
X28.573Y-28.492
X28.573Y-33.442
X28.573Y-45.593
X38.733Y-22.092
X38.733Y-28.492
X38.733Y-33.442
X38.733Y-45.593
X60.883Y-17.572
X60.883Y-20.113
X60.883Y-22.652
X60.883Y-25.192
X60.883Y-27.732
X60.883Y-30.272
X60.883Y-32.812
X60.883Y-35.352
X60.883Y-37.892
X60.883Y-40.432
X62.303Y-50.192
X68.503Y-17.572
X68.503Y-20.113
X68.503Y-22.652
X68.503Y-25.192
X68.503Y-27.732
X68.503Y-30.272
X68.503Y-32.812
X68.503Y-35.352
X68.503Y-37.892
X68.503Y-40.432
X72.463Y-50.192
T3
X15.738Y-30.192
X16.738Y-17.192
X19.738Y-45.192
X49.738Y-37.192
X51.738Y-33.192
X56.738Y-22.192
T4
X44.573Y-22.293
X44.573Y-33.442
X44.573Y-45.593
X47.113Y-22.293
X47.113Y-33.442
X47.113Y-45.593
T5
X46.363Y-7.582
X53.963Y-7.582
T6
X4.463Y-10.432
X4.463Y-14.932
X4.463Y-25.432
X4.463Y-29.932
X4.463Y-40.432
X4.463Y-44.932
X10.963Y-10.432
X10.963Y-14.932
X10.963Y-25.432
X10.963Y-29.932
X10.963Y-40.432
X10.963Y-44.932
X44.573Y-17.293
X44.573Y-28.442
X44.573Y-40.593
X52.203Y-45.692
X52.203Y-50.192
X54.733Y-17.293
X54.733Y-28.442
X54.733Y-40.593
X58.703Y-45.692
X58.703Y-50.192
T7
X32.883Y-7.582
X37.963Y-7.582
M30
